<?xml version="1.0" encoding="utf-8"?><svg viewBox="0 0 100 100" xmlns="http://www.w3.org/2000/svg" width="90px" height="90px" xmlns:xlink="http://www.w3.org/1999/xlink" style="width:100%;shape-rendering:crispedges;height:100%;background-size:initial;background-repeat-y:initial;background-repeat-x:initial;background-position-y:initial;background-position-x:initial;background-origin:initial;background-image:initial;background-color:rgb(255, 255, 255);background-clip:initial;background-attachment:initial;animation-play-state:paused" ><g class="ldl-scale" style="transform-origin:50% 50%;transform:rotate(0deg) scale(1, 1);animation-play-state:paused" ><path d="M57.4 16.3c4-5.4 9.9-7 16.5-8.3 1.8 1.9 2.3 4.1.6 6.7-5.8 1.2-11.1 1.9-15 6.4-2.1 2.4-3.8 5.1-5.1 8-.6 1.4-1.2 2.9-1.6 4.4-.4 1.6-.3 3.5-2.1 3.9-.4-3.3.7-7.4 1.6-10.5 1-3.7 2.7-7.4 5.1-10.6z" fill="#603813" style="fill:rgb(96, 56, 19);animation-play-state:paused" ></path>
<path d="M49.5 18.2c-5.5-6.4-14.5-9.6-22.8-8-.3 1.7.2 3.5 1 5 3.1 6.4 10.1 10.6 17.2 10.3 1.5-.1 3-.3 4.3.2 1.4.4 2.6 1.9 2.2 3.3 1.6-3.6.6-7.8-1.9-10.8z" fill="#009245" style="fill:rgb(0, 146, 69);animation-play-state:paused" ></path>
<path d="M82 42.5c0-3.5-.4-6.9-1-10.2-1.8-1.5-3.8-2.7-6.3-3.6C64.2 24.8 51.5 35 51.5 35S40.7 25.3 29 28.7C17.3 32 13.4 44.3 13.4 54s4.3 18.4 11.1 24.7c4.1 3.8 9.2 6.7 14.9 8.5 1 .1 1.9.1 2.9.1 21.9 0 39.7-20 39.7-44.8z" fill="#D96D6D" style="fill:rgb(217, 109, 109);animation-play-state:paused" ></path>
<path d="M25.3 40.8c-4 3.2-5.3 11.5-3.8 14.9" stroke-miterlimit="10" stroke-linecap="round" stroke-width="5.703" stroke="#FFF" fill="#FFF" style="stroke:rgb(255, 255, 255);fill:rgb(255, 255, 255);animation-play-state:paused" ></path>
<ellipse ry="3.3" rx="3.3" cy="65" cx="24.8" fill="#FFF" transform="rotate(-34.925 24.783 65.045)" style="fill:rgb(255, 255, 255);animation-play-state:paused" ></ellipse>
<path d="M81 32.3c.7 3.3 1 6.7 1 10.2 0 24.8-17.8 44.8-39.7 44.8-1 0-1.9-.1-2.9-.1 3.8 1.2 7.8 1.8 12 1.8 10.5 0 20-3.9 26.9-10.3s11.2-15 11.2-24.7c0-7.6-2-16.3-8.5-21.7z" fill="#C1272D" style="fill:rgb(193, 39, 45);animation-play-state:paused" ></path></g><!-- generated by https://loading.io/ --></svg>