<svg width="20" height="23" viewBox="0 0 20 23" fill="none" xmlns="http://www.w3.org/2000/svg">
<path fill-rule="evenodd" clip-rule="evenodd" d="M3.5959 0.764146C3.69001 0.634986 3.84019 0.558594 4 0.558594H16C16.1598 0.558594 16.31 0.634986 16.4041 0.764146L19.4008 4.87691C19.4577 4.95304 19.4934 5.0459 19.4992 5.14678C19.4997 5.15644 19.5 5.16613 19.5 5.17584V19.5862C19.5 20.2602 19.24 20.9094 18.7728 21.3903C18.3052 21.8717 17.6678 22.1448 17 22.1448H3C2.33222 22.1448 1.69482 21.8717 1.22716 21.3903C0.759986 20.9094 0.5 20.2602 0.5 19.5862V5.17584C0.5 5.06377 0.536872 4.96031 0.599147 4.87693L3.5959 0.764146ZM15.7457 1.55859L18.017 4.67584H1.98297L4.25433 1.55859H15.7457ZM1.5 19.5862V5.67584H18.5V19.5862C18.5 20.0042 18.3386 20.4022 18.0556 20.6935C17.7731 20.9842 17.3931 21.1448 17 21.1448H3C2.60691 21.1448 2.2269 20.9842 1.94441 20.6935C1.66144 20.4022 1.5 20.0042 1.5 19.5862ZM6.5 9.29309C6.5 9.01695 6.27614 8.79309 6 8.79309C5.72386 8.79309 5.5 9.01695 5.5 9.29309C5.5 10.5131 5.9707 11.6859 6.81295 12.5528C7.65568 13.4203 8.80179 13.9103 10 13.9103C11.1982 13.9103 12.3443 13.4203 13.187 12.5528C14.0293 11.6859 14.5 10.5131 14.5 9.29309C14.5 9.01695 14.2761 8.79309 14 8.79309C13.7239 8.79309 13.5 9.01695 13.5 9.29309C13.5 10.257 13.1278 11.1787 12.4698 11.856C11.8122 12.5329 10.9235 12.9103 10 12.9103C9.07648 12.9103 8.18776 12.5329 7.5302 11.856C6.87215 11.1787 6.5 10.257 6.5 9.29309Z" fill="#FFFFFF"/>
</svg>
